<?xml version="1.0" encoding="utf-8"?>
<!-- Generator: Adobe Illustrator 15.1.0, SVG Export Plug-In . SVG Version: 6.00 Build 0)  -->
<!DOCTYPE svg PUBLIC "-//W3C//DTD SVG 1.1//EN" "http://www.w3.org/Graphics/SVG/1.1/DTD/svg11.dtd">
<svg version="1.1" id="Logo" xmlns="http://www.w3.org/2000/svg" xmlns:xlink="http://www.w3.org/1999/xlink" x="0px" y="0px"
	 width="387.406px" height="132px" viewBox="0 0 387.406 132" enable-background="new 0 0 387.406 132" xml:space="preserve">
<g>
	<path fill="#7C287D" d="M123.625,100.363V74.745c0-3.228-0.735-5.637-2.204-7.227c-1.47-1.59-3.77-2.385-6.901-2.385
		c-4.167,0-7.208,1.132-9.124,3.396c-1.915,2.265-2.873,5.974-2.873,11.129v20.704h-5.998V44.141h5.998v17.019
		c0,2.048-0.097,3.746-0.289,5.095h0.361c1.18-1.903,2.86-3.402,5.041-4.499c2.18-1.096,4.667-1.644,7.461-1.644
		c4.842,0,8.473,1.15,10.894,3.451c2.421,2.301,3.631,5.956,3.631,10.966v25.835H123.625z"/>
	<path fill="#7C287D" d="M166.298,100.363l-1.192-5.637h-0.289c-1.976,2.481-3.945,4.162-5.908,5.041
		c-1.963,0.879-4.415,1.319-7.353,1.319c-3.927,0-7.004-1.012-9.232-3.035c-2.229-2.023-3.342-4.902-3.342-8.636
		c0-7.997,6.396-12.188,19.187-12.574l6.721-0.217v-2.457c0-3.107-0.668-5.402-2.005-6.883s-3.475-2.222-6.414-2.222
		c-3.3,0-7.034,1.012-11.201,3.035l-1.843-4.589c1.951-1.06,4.089-1.891,6.414-2.493c2.324-0.602,4.655-0.903,6.992-0.903
		c4.721,0,8.22,1.048,10.497,3.144s3.415,5.456,3.415,10.081v27.027H166.298z M152.749,96.136c3.733,0,6.667-1.023,8.798-3.071
		c2.132-2.047,3.198-4.914,3.198-8.6v-3.577l-5.998,0.253c-4.77,0.169-8.208,0.91-10.316,2.222
		c-2.108,1.313-3.162,3.354-3.162,6.125c0,2.168,0.656,3.818,1.969,4.95C148.551,95.57,150.388,96.136,152.749,96.136z"/>
	<path fill="#7C287D" d="M201.167,60.039c1.758,0,3.336,0.145,4.733,0.434l-0.831,5.564c-1.639-0.361-3.083-0.542-4.336-0.542
		c-3.204,0-5.944,1.301-8.22,3.902s-3.415,5.842-3.415,9.72v21.246H183.1V60.762h4.95l0.687,7.335h0.289
		c1.469-2.577,3.24-4.564,5.312-5.962C196.409,60.738,198.685,60.039,201.167,60.039z"/>
	<path fill="#7C287D" d="M231.735,101.086c-2.578,0-4.932-0.476-7.064-1.427c-2.131-0.951-3.92-2.415-5.365-4.39h-0.434
		c0.289,2.313,0.434,4.505,0.434,6.576v16.296h-5.998V60.762h4.878l0.831,5.42h0.289c1.541-2.168,3.336-3.733,5.384-4.697
		c2.047-0.963,4.396-1.445,7.046-1.445c5.251,0,9.305,1.795,12.158,5.384c2.855,3.589,4.282,8.624,4.282,15.104
		c0,6.504-1.451,11.557-4.354,15.158C240.918,99.286,236.889,101.086,231.735,101.086z M230.868,65.134
		c-4.047,0-6.974,1.12-8.78,3.36s-2.734,5.806-2.782,10.695v1.337c0,5.564,0.927,9.545,2.782,11.942
		c1.854,2.397,4.829,3.595,8.925,3.595c3.42,0,6.101-1.385,8.039-4.155c1.939-2.77,2.909-6.588,2.909-11.454
		c0-4.938-0.97-8.726-2.909-11.364C237.113,66.453,234.384,65.134,230.868,65.134z"/>
	<path fill="#7C287D" d="M300.821,100.363h-7.01l-28.87-44.335h-0.289c0.385,5.203,0.578,9.973,0.578,14.309v30.026h-5.673V47.537
		h6.938l28.798,44.154h0.289c-0.049-0.65-0.157-2.74-0.325-6.269c-0.169-3.529-0.229-6.052-0.181-7.57V47.537h5.745V100.363z"/>
	<path fill="#7C287D" d="M338.796,100.363l-1.192-5.637h-0.289c-1.976,2.481-3.944,4.162-5.908,5.041
		c-1.963,0.879-4.414,1.319-7.353,1.319c-3.927,0-7.004-1.012-9.231-3.035c-2.229-2.023-3.343-4.902-3.343-8.636
		c0-7.997,6.396-12.188,19.187-12.574l6.721-0.217v-2.457c0-3.107-0.668-5.402-2.006-6.883c-1.336-1.481-3.475-2.222-6.413-2.222
		c-3.301,0-7.034,1.012-11.201,3.035l-1.843-4.589c1.951-1.06,4.089-1.891,6.414-2.493c2.324-0.602,4.654-0.903,6.991-0.903
		c4.721,0,8.22,1.048,10.497,3.144c2.275,2.096,3.414,5.456,3.414,10.081v27.027H338.796z M325.247,96.136
		c3.733,0,6.666-1.023,8.799-3.071c2.131-2.047,3.197-4.914,3.197-8.6v-3.577l-5.998,0.253c-4.77,0.169-8.208,0.91-10.316,2.222
		c-2.107,1.313-3.161,3.354-3.161,6.125c0,2.168,0.656,3.818,1.97,4.95C321.049,95.57,322.885,96.136,325.247,96.136z"/>
	<path fill="#7C287D" d="M364.27,100.363l-15.031-39.602h6.432l8.527,23.486c1.927,5.492,3.059,9.058,3.396,10.695h0.289
		c0.265-1.276,1.102-3.92,2.512-7.931c1.408-4.011,4.57-12.761,9.484-26.25h6.432l-15.031,39.602H364.27z"/>
</g>
<g>
	<polygon fill="#7C287D" fill-opacity="0.64" stroke="#7C287D" stroke-width="2.2536" stroke-miterlimit="10" points="21.167,10.5 
		3.447,23.879 3.447,54.321 48.711,79.066 48.711,93.322 28.96,100.363 2.167,84.5 2.167,114.494 28.96,130.333 78.167,107.882 
		78.167,67.559 31.296,46.508 31.296,34.239 65.8,26.333 65.8,2.793 	"/>
	<line fill="none" stroke="#7C287D" stroke-width="1.1232" stroke-miterlimit="10" x1="21.167" y1="10.5" x2="65.8" y2="26.333"/>
	<line fill="none" stroke="#7C287D" stroke-width="1.1232" stroke-miterlimit="10" x1="21.167" y1="10.5" x2="31.296" y2="34.239"/>
	
		<line fill="none" stroke="#7C287D" stroke-width="1.1232" stroke-miterlimit="10" x1="3.447" y1="54.321" x2="31.296" y2="34.239"/>
	
		<line fill="none" stroke="#7C287D" stroke-width="1.1232" stroke-miterlimit="10" x1="31.296" y1="46.508" x2="3.447" y2="54.321"/>
	
		<line fill="none" stroke="#7C287D" stroke-width="1.1232" stroke-miterlimit="10" x1="3.447" y1="54.321" x2="78.167" y2="67.559"/>
	
		<line fill="none" stroke="#7C287D" stroke-width="1.1232" stroke-miterlimit="10" x1="48.711" y1="79.066" x2="78.167" y2="107.882"/>
	
		<line fill="none" stroke="#7C287D" stroke-width="1.1232" stroke-miterlimit="10" x1="78.167" y1="67.559" x2="48.711" y2="79.066"/>
	
		<line fill="none" stroke="#7C287D" stroke-width="1.1232" stroke-miterlimit="10" x1="48.711" y1="93.322" x2="78.167" y2="107.882"/>
	<line fill="none" stroke="#7C287D" stroke-width="1.1232" stroke-miterlimit="10" x1="2.167" y1="84.5" x2="28.96" y2="130.333"/>
	
		<line fill="none" stroke="#7C287D" stroke-width="1.1232" stroke-miterlimit="10" x1="48.711" y1="93.322" x2="28.96" y2="130.333"/>
	
		<line fill="none" stroke="#7C287D" stroke-width="1.1232" stroke-miterlimit="10" x1="28.96" y1="100.363" x2="28.96" y2="130.333"/>
</g>
</svg>
